<?xml version="1.0" standalone="no"?>
<!DOCTYPE svg PUBLIC "-//W3C//DTD SVG 20010904//EN"
 "http://www.w3.org/TR/2001/REC-SVG-20010904/DTD/svg10.dtd">
<svg version="1.0" xmlns="http://www.w3.org/2000/svg"
 width="261.000000pt" height="225.000000pt" viewBox="0 0 261.000000 225.000000"
 preserveAspectRatio="xMidYMid meet">

<g transform="translate(0.000000,225.000000) scale(0.100000,-0.100000)"
fill="#000000" stroke="none">
<path d="M1755 2040 c-192 -18 -422 -66 -565 -118 -182 -65 -417 -218 -545
-353 -182 -192 -267 -391 -268 -624 0 -213 51 -350 181 -487 75 -78 204 -178
256 -197 41 -16 30 1 -25 38 -74 50 -135 124 -179 215 -54 114 -64 156 -64
281 0 90 4 123 23 180 62 182 152 304 322 432 70 53 243 142 319 164 25 7 50
16 55 20 12 8 42 14 170 34 55 8 119 20 143 25 54 13 339 13 394 0 83 -18 163
-28 176 -21 23 13 201 346 190 356 -3 3 -46 13 -94 21 -49 8 -109 19 -134 24
-65 13 -262 19 -355 10z"/>
<path d="M1475 1383 c-453 -60 -737 -284 -784 -619 -22 -151 38 -317 150 -415
70 -62 117 -94 125 -86 3 3 -12 22 -34 42 -63 56 -122 187 -122 268 0 113 73
250 176 330 92 72 180 109 359 149 78 17 374 17 433 0 58 -17 79 -3 122 80 18
35 50 98 72 141 22 43 38 81 34 84 -23 23 -411 42 -531 26z"/>
<path d="M1390 854 c-51 -7 -199 -53 -245 -76 -22 -12 -59 -34 -82 -51 -128
-91 -147 -259 -47 -397 50 -67 75 -80 45 -22 -24 47 -35 120 -27 168 9 45 75
118 136 149 25 13 92 31 148 40 104 17 111 17 336 -8 14 -1 29 16 59 71 21 40
37 79 34 86 -3 8 -29 19 -58 25 -59 13 -244 22 -299 15z"/>
</g>
</svg>
